<?xml version="1.0" encoding="UTF-8" standalone="no"?>
<!-- Created with Inkscape (http://www.inkscape.org/) -->

<svg
   xmlns:dc="http://purl.org/dc/elements/1.1/"
   xmlns:cc="http://creativecommons.org/ns#"
   xmlns:rdf="http://www.w3.org/1999/02/22-rdf-syntax-ns#"
   xmlns:svg="http://www.w3.org/2000/svg"
   xmlns="http://www.w3.org/2000/svg"
   xmlns:sodipodi="http://sodipodi.sourceforge.net/DTD/sodipodi-0.dtd"
   xmlns:inkscape="http://www.inkscape.org/namespaces/inkscape"
   width="46.434021mm"
   height="46.434025mm"
   viewBox="0 0 46.434021 46.434025"
   version="1.1"
   id="svg32633"
   inkscape:version="0.92.1 r15371"
   sodipodi:docname="Cosmetic_Mascara.svg">
  <defs
     id="defs32627">
    <clipPath
       id="clipPath14138"
       clipPathUnits="userSpaceOnUse">
      <path
         inkscape:connector-curvature="0"
         id="path14136"
         d="m 822.066,461.936 h 12.701 v -95.293 h -12.701 z" />
    </clipPath>
    <clipPath
       id="clipPath14158"
       clipPathUnits="userSpaceOnUse">
      <path
         inkscape:connector-curvature="0"
         id="path14156"
         d="m 820.049,475.604 h 9.072 v -13.668 h -9.072 z" />
    </clipPath>
    <clipPath
       id="clipPath14184"
       clipPathUnits="userSpaceOnUse">
      <path
         inkscape:connector-curvature="0"
         id="path14182"
         d="M 881.806,415.672 H 894.16 V 367.04 h -12.354 z" />
    </clipPath>
    <clipPath
       id="clipPath14200"
       clipPathUnits="userSpaceOnUse">
      <path
         inkscape:connector-curvature="0"
         id="path14198"
         d="m 876.595,428.033 h 9.073 v -12.361 h -9.073 z" />
    </clipPath>
  </defs>
  <sodipodi:namedview
     id="base"
     pagecolor="#ffffff"
     bordercolor="#666666"
     borderopacity="1.0"
     inkscape:pageopacity="0.0"
     inkscape:pageshadow="2"
     inkscape:zoom="3.959798"
     inkscape:cx="112.01526"
     inkscape:cy="133.46708"
     inkscape:document-units="mm"
     inkscape:current-layer="layer1"
     showgrid="false"
     inkscape:window-width="1920"
     inkscape:window-height="1027"
     inkscape:window-x="-8"
     inkscape:window-y="-8"
     inkscape:window-maximized="1" />
  <metadata
     id="metadata32630">
    <rdf:RDF>
      <cc:Work
         rdf:about="">
        <dc:format>image/svg+xml</dc:format>
        <dc:type
           rdf:resource="http://purl.org/dc/dcmitype/StillImage" />
        <dc:title></dc:title>
      </cc:Work>
    </rdf:RDF>
  </metadata>
  <g
     inkscape:label="Layer 1"
     inkscape:groupmode="layer"
     id="layer1"
     transform="translate(-152.16394,-40.193702)">
    <g
       transform="translate(52.133071,68.903797)"
       id="g11664">
      <g
         transform="matrix(0.35277777,0,0,-0.35277777,118.18365,16.764126)"
         id="g14124">
        <path
           inkscape:connector-curvature="0"
           id="path14126"
           style="fill:#f4a637;fill-opacity:1;fill-rule:nonzero;stroke:none"
           d="M 0,0 H -30.681 L -34.31,95.293 H 3.629 Z" />
      </g>
      <g
         transform="matrix(0.35277777,0,0,-0.35277777,108.28432,15.80376)"
         id="g14128">
        <path
           inkscape:connector-curvature="0"
           id="path14130"
           style="fill:#2e2f31;fill-opacity:1;fill-rule:nonzero;stroke:none"
           d="m 0,0 h 25.44 l 3.422,89.85 H -3.422 Z M 28.061,-5.443 H -2.621 c -1.463,0 -2.663,1.157 -2.72,2.619 L -8.97,92.468 c -0.028,0.74 0.247,1.458 0.759,1.991 0.514,0.533 1.221,0.834 1.961,0.834 h 37.94 c 0.74,0 1.447,-0.301 1.961,-0.834 0.512,-0.533 0.787,-1.251 0.759,-1.991 L 30.781,-2.824 c -0.057,-1.462 -1.257,-2.619 -2.72,-2.619" />
      </g>
      <g
         transform="matrix(0.35277777,0,0,-0.35277777,-175.02343,146.10745)"
         id="g14132">
        <g
           id="g14134" />
        <g
           id="g14146">
          <g
             style="opacity:0.14999402"
             id="g14144"
             clip-path="url(#clipPath14138)">
            <g
               id="g14142"
               transform="translate(825.6948,461.936)">
              <path
                 inkscape:connector-curvature="0"
                 id="path14140"
                 style="fill:#000000;fill-opacity:1;fill-rule:nonzero;stroke:none"
                 d="M 0,0 -3.629,-95.293 H 5.443 L 9.072,0 Z" />
            </g>
          </g>
        </g>
      </g>
      <path
         inkscape:connector-curvature="0"
         id="path14148"
         style="fill:#db8727;fill-opacity:1;fill-rule:nonzero;stroke:none;stroke-width:0.35277778"
         d="m 117.47203,-21.675069 h -9.40047 v 4.821767 h 9.40047 z" />
      <path
         inkscape:connector-curvature="0"
         id="path14150"
         style="fill:#2e2f31;fill-opacity:1;fill-rule:nonzero;stroke:none;stroke-width:0.35277778"
         d="m 109.03182,-17.813563 h 7.47995 v -2.901597 h -7.47995 z m 8.44021,1.920169 h -9.40012 c -0.53022,0 -0.96026,-0.429683 -0.96026,-0.959908 v -4.821767 c 0,-0.530577 0.43004,-0.960261 0.96026,-0.960261 h 9.40012 c 0.53022,0 0.96026,0.429684 0.96026,0.960261 v 4.821767 c 0,0.530225 -0.43004,0.959908 -0.96026,0.959908" />
      <g
         transform="matrix(0.35277777,0,0,-0.35277777,-175.02343,146.10745)"
         id="g14152">
        <g
           id="g14154" />
        <g
           id="g14164">
          <g
             style="opacity:0.14999402"
             id="g14162"
             clip-path="url(#clipPath14158)">
            <path
               inkscape:connector-curvature="0"
               id="path14160"
               style="fill:#000000;fill-opacity:1;fill-rule:nonzero;stroke:none"
               d="m 820.049,461.936 h 9.072 v 13.668 h -9.072 z" />
          </g>
        </g>
      </g>
      <g
         transform="matrix(0.35277777,0,0,-0.35277777,139.25856,16.623933)"
         id="g14166">
        <path
           inkscape:connector-curvature="0"
           id="path14168"
           style="fill:#f4a637;fill-opacity:1;fill-rule:nonzero;stroke:none"
           d="m 0,0 h -27.747 l -3.282,48.632 H 3.282 Z" />
      </g>
      <g
         transform="matrix(0.35277777,0,0,-0.35277777,130.36747,15.663742)"
         id="g14170">
        <path
           inkscape:connector-curvature="0"
           id="path14172"
           style="fill:#2e2f31;fill-opacity:1;fill-rule:nonzero;stroke:none"
           d="m 0,0 h 22.658 l 2.915,43.188 H -2.915 Z M 25.203,-5.443 H -2.545 c -1.431,0 -2.619,1.109 -2.716,2.539 l -3.282,48.631 c -0.049,0.751 0.213,1.49 0.729,2.041 0.514,0.551 1.235,0.863 1.988,0.863 h 34.31 c 0.753,0 1.474,-0.312 1.988,-0.863 0.516,-0.551 0.778,-1.29 0.729,-2.041 L 27.919,-2.904 c -0.098,-1.43 -1.285,-2.539 -2.716,-2.539" />
      </g>
      <path
         inkscape:connector-curvature="0"
         id="path14174"
         style="fill:#4f4f50;fill-opacity:1;fill-rule:nonzero;stroke:none;stroke-width:0.35277778"
         d="m 137.42055,-4.8930772 h -6.11223 v 4.36068599 h 6.11223 z" />
      <path
         inkscape:connector-curvature="0"
         id="path14176"
         style="fill:#2e2f31;fill-opacity:1;fill-rule:nonzero;stroke:none;stroke-width:0.35277778"
         d="m 132.26823,-1.4922995 h 4.19206 v -2.4405166 h -4.19206 z m 5.15232,1.92016938 h -6.11223 c -0.53022,0 -0.96026,-0.4300361 -0.96026,-0.95990831 V -4.8930772 c 0,-0.5298722 0.43004,-0.9599083 0.96026,-0.9599083 h 6.11223 c 0.53023,0 0.96026,0.4300361 0.96026,0.9599083 v 4.36103877 c 0,0.52987221 -0.43003,0.95990831 -0.96026,0.95990831" />
      <g
         transform="matrix(0.35277777,0,0,-0.35277777,-175.02343,146.10745)"
         id="g14178">
        <g
           id="g14180" />
        <g
           id="g14192">
          <g
             style="opacity:0.14999402"
             id="g14190"
             clip-path="url(#clipPath14184)">
            <g
               id="g14188"
               transform="translate(885.0874,415.6721)">
              <path
                 inkscape:connector-curvature="0"
                 id="path14186"
                 style="fill:#000000;fill-opacity:1;fill-rule:nonzero;stroke:none"
                 d="M 0,0 -3.282,-48.632 H 5.791 L 9.072,0 Z" />
            </g>
          </g>
        </g>
      </g>
      <g
         transform="matrix(0.35277777,0,0,-0.35277777,-175.02343,146.10745)"
         id="g14194">
        <g
           id="g14196" />
        <g
           id="g14206">
          <g
             style="opacity:0.14999402"
             id="g14204"
             clip-path="url(#clipPath14200)">
            <path
               inkscape:connector-curvature="0"
               id="path14202"
               style="fill:#000000;fill-opacity:1;fill-rule:nonzero;stroke:none"
               d="m 876.595,415.672 h 9.072 v 12.361 h -9.072 z" />
          </g>
        </g>
      </g>
      <g
         transform="matrix(0.35277777,0,0,-0.35277777,134.3643,-4.8931478)"
         id="g14208">
        <path
           inkscape:connector-curvature="0"
           id="path14210"
           style="fill:#ffffff;fill-opacity:1;fill-rule:nonzero;stroke:none"
           d="M 0,0 V 64.791" />
      </g>
      <g
         transform="matrix(0.35277777,0,0,-0.35277777,134.3644,-3.9327456)"
         id="g14212">
        <path
           inkscape:connector-curvature="0"
           id="path14214"
           style="fill:#2e2f31;fill-opacity:1;fill-rule:nonzero;stroke:none"
           d="m 0,0 c -1.503,0 -2.722,1.219 -2.722,2.722 v 64.791 c 0,1.504 1.219,2.722 2.722,2.722 1.503,0 2.722,-1.218 2.722,-2.722 V 2.722 C 2.722,1.219 1.503,0 0,0" />
      </g>
      <g
         transform="matrix(0.35277777,0,0,-0.35277777,132.02101,-22.588163)"
         id="g14216">
        <path
           inkscape:connector-curvature="0"
           id="path14218"
           style="fill:#ffffff;fill-opacity:1;fill-rule:nonzero;stroke:none"
           d="M 0,0 H 13.285" />
      </g>
      <g
         transform="matrix(0.35277777,0,0,-0.35277777,136.70791,-21.627937)"
         id="g14220">
        <path
           inkscape:connector-curvature="0"
           id="path14222"
           style="fill:#2e2f31;fill-opacity:1;fill-rule:nonzero;stroke:none"
           d="m 0,0 h -13.286 c -1.503,0 -2.722,1.218 -2.722,2.722 0,1.503 1.219,2.721 2.722,2.721 H 0 C 1.503,5.443 2.722,4.225 2.722,2.722 2.722,1.218 1.503,0 0,0" />
      </g>
      <g
         transform="matrix(0.35277777,0,0,-0.35277777,132.02101,-19.693727)"
         id="g14224">
        <path
           inkscape:connector-curvature="0"
           id="path14226"
           style="fill:#ffffff;fill-opacity:1;fill-rule:nonzero;stroke:none"
           d="M 0,0 H 13.285" />
      </g>
      <g
         transform="matrix(0.35277777,0,0,-0.35277777,136.70791,-18.733713)"
         id="g14228">
        <path
           inkscape:connector-curvature="0"
           id="path14230"
           style="fill:#2e2f31;fill-opacity:1;fill-rule:nonzero;stroke:none"
           d="m 0,0 h -13.286 c -1.503,0 -2.722,1.218 -2.722,2.722 0,1.503 1.219,2.721 2.722,2.721 H 0 C 1.503,5.443 2.722,4.225 2.722,2.722 2.722,1.218 1.503,0 0,0" />
      </g>
      <g
         transform="matrix(0.35277777,0,0,-0.35277777,132.5676,-16.799327)"
         id="g14232">
        <path
           inkscape:connector-curvature="0"
           id="path14234"
           style="fill:#ffffff;fill-opacity:1;fill-rule:nonzero;stroke:none"
           d="M 0,0 H 10.186" />
      </g>
      <g
         transform="matrix(0.35277777,0,0,-0.35277777,136.16096,-15.839136)"
         id="g14236">
        <path
           inkscape:connector-curvature="0"
           id="path14238"
           style="fill:#2e2f31;fill-opacity:1;fill-rule:nonzero;stroke:none"
           d="m 0,0 h -10.185 c -1.503,0 -2.722,1.218 -2.722,2.722 0,1.503 1.219,2.721 2.722,2.721 H 0 C 1.503,5.443 2.722,4.225 2.722,2.722 2.722,1.218 1.503,0 0,0" />
      </g>
      <g
         transform="matrix(0.35277777,0,0,-0.35277777,132.5676,-25.482564)"
         id="g14240">
        <path
           inkscape:connector-curvature="0"
           id="path14242"
           style="fill:#ffffff;fill-opacity:1;fill-rule:nonzero;stroke:none"
           d="M 0,0 H 10.186" />
      </g>
      <g
         transform="matrix(0.35277777,0,0,-0.35277777,136.16096,-24.522514)"
         id="g14244">
        <path
           inkscape:connector-curvature="0"
           id="path14246"
           style="fill:#2e2f31;fill-opacity:1;fill-rule:nonzero;stroke:none"
           d="m 0,0 h -10.185 c -1.503,0 -2.722,1.218 -2.722,2.722 0,1.503 1.219,2.721 2.722,2.721 H 0 C 1.503,5.443 2.722,4.225 2.722,2.722 2.722,1.218 1.503,0 0,0" />
      </g>
    </g>
  </g>
</svg>
