<?xml version="1.0" encoding="UTF-8" standalone="no"?>
<!-- Created with Inkscape (http://www.inkscape.org/) -->

<svg
   xmlns:dc="http://purl.org/dc/elements/1.1/"
   xmlns:cc="http://creativecommons.org/ns#"
   xmlns:rdf="http://www.w3.org/1999/02/22-rdf-syntax-ns#"
   xmlns:svg="http://www.w3.org/2000/svg"
   xmlns="http://www.w3.org/2000/svg"
   xmlns:sodipodi="http://sodipodi.sourceforge.net/DTD/sodipodi-0.dtd"
   xmlns:inkscape="http://www.inkscape.org/namespaces/inkscape"
   width="47.255608mm"
   height="47.255608mm"
   viewBox="0 0 47.255608 47.255608"
   version="1.1"
   id="svg23219"
   inkscape:version="0.92.1 r15371"
   sodipodi:docname="Cosmetic_NailPollish.svg">
  <defs
     id="defs23213">
    <clipPath
       id="clipPath14082"
       clipPathUnits="userSpaceOnUse">
      <path
         inkscape:connector-curvature="0"
         id="path14080"
         d="m 632.312,427.494 h 42.945 v -61.503 h -42.945 z" />
    </clipPath>
    <clipPath
       id="clipPath14114"
       clipPathUnits="userSpaceOnUse">
      <path
         inkscape:connector-curvature="0"
         id="path14112"
         d="m 632.312,494.501 h 18.175 v -64.337 h -18.175 z" />
    </clipPath>
  </defs>
  <sodipodi:namedview
     id="base"
     pagecolor="#ffffff"
     bordercolor="#666666"
     borderopacity="1.0"
     inkscape:pageopacity="0.0"
     inkscape:pageshadow="2"
     inkscape:zoom="1.979899"
     inkscape:cx="140.07198"
     inkscape:cy="96.607765"
     inkscape:document-units="mm"
     inkscape:current-layer="layer1"
     showgrid="false"
     inkscape:window-width="1920"
     inkscape:window-height="1027"
     inkscape:window-x="-8"
     inkscape:window-y="-8"
     inkscape:window-maximized="1" />
  <metadata
     id="metadata23216">
    <rdf:RDF>
      <cc:Work
         rdf:about="">
        <dc:format>image/svg+xml</dc:format>
        <dc:type
           rdf:resource="http://purl.org/dc/dcmitype/StillImage" />
        <dc:title></dc:title>
      </cc:Work>
    </rdf:RDF>
  </metadata>
  <g
     inkscape:label="Layer 1"
     inkscape:groupmode="layer"
     id="layer1"
     transform="translate(-58.771007,-69.265052)">
    <g
       transform="translate(32.756427,98.566576)"
       id="g11608">
      <g
         transform="matrix(0.35277777,0,0,-0.35277777,36.092793,-4.70293)"
         id="g14068">
        <path
           inkscape:connector-curvature="0"
           id="path14070"
           style="fill:#ee3465;fill-opacity:1;fill-rule:nonzero;stroke:none"
           d="m 0,0 v -56.758 c 0,-2.621 17.196,-4.745 38.409,-4.745 21.212,0 38.408,2.124 38.408,4.745 V 0 Z" />
      </g>
      <g
         transform="matrix(0.35277777,0,0,-0.35277777,37.052772,14.933598)"
         id="g14072">
        <path
           inkscape:connector-curvature="0"
           id="path14074"
           style="fill:#2e2f31;fill-opacity:1;fill-rule:nonzero;stroke:none"
           d="m 0,0 c 3.321,-1.396 16.511,-3.119 35.687,-3.119 19.176,0 32.367,1.723 35.687,3.119 V 52.941 H 0 Z m 35.687,-8.562 c -10.368,0 -20.131,0.501 -27.492,1.41 -10.07,1.244 -13.638,2.828 -13.638,6.057 v 56.757 c 0,1.503 1.219,2.722 2.721,2.722 h 76.818 c 1.503,0 2.722,-1.219 2.722,-2.722 V -1.095 c 0,-3.229 -3.569,-4.813 -13.639,-6.057 -7.361,-0.909 -17.124,-1.41 -27.492,-1.41" />
      </g>
      <g
         transform="matrix(0.35277777,0,0,-0.35277777,-175.02343,146.10745)"
         id="g14076">
        <g
           id="g14078" />
        <g
           id="g14090">
          <g
             style="opacity:0.14999402"
             id="g14088"
             clip-path="url(#clipPath14082)">
            <g
               id="g14086"
               transform="translate(666.1842,427.494)">
              <path
                 inkscape:connector-curvature="0"
                 id="path14084"
                 style="fill:#000000;fill-opacity:1;fill-rule:nonzero;stroke:none"
                 d="m 0,0 v -56.758 c 0,-2.431 -14.802,-4.431 -33.872,-4.709 1.49,-0.022 2.999,-0.036 4.536,-0.036 21.212,0 38.408,2.124 38.408,4.745 L 9.072,0 Z" />
            </g>
          </g>
        </g>
      </g>
      <g
         transform="matrix(0.35277777,0,0,-0.35277777,63.192123,-5.068055)"
         id="g14092">
        <path
           inkscape:connector-curvature="0"
           id="path14094"
           style="fill:#da255e;fill-opacity:1;fill-rule:nonzero;stroke:none"
           d="m 0,0 c 0,-2.62 -17.196,-4.745 -38.408,-4.745 -21.213,0 -38.409,2.125 -38.409,4.745 0,2.62 17.196,4.745 38.409,4.745 C -17.196,4.745 0,2.62 0,0" />
      </g>
      <g
         transform="matrix(0.35277777,0,0,-0.35277777,62.435873,-4.5734606)"
         id="g14096">
        <path
           inkscape:connector-curvature="0"
           id="path14098"
           style="fill:#2e2f31;fill-opacity:1;fill-rule:nonzero;stroke:none"
           d="m 0,0 h 0.018 z m -67.566,1.402 c 6.031,-1.065 17.001,-2.022 31.301,-2.022 14.3,0 25.27,0.957 31.302,2.022 -6.034,1.066 -17.004,2.023 -31.302,2.023 -14.298,0 -25.268,-0.957 -31.301,-2.023 m 31.301,-7.466 c -10.368,0 -20.131,0.5 -27.492,1.409 -10.07,1.244 -13.639,2.828 -13.639,6.057 0,3.228 3.569,4.812 13.639,6.056 7.361,0.91 17.124,1.411 27.492,1.411 10.368,0 20.131,-0.501 27.492,-1.411 C 1.297,6.214 4.866,4.63 4.866,1.402 c 0,-3.229 -3.569,-4.813 -13.639,-6.057 -7.361,-0.909 -17.124,-1.409 -27.492,-1.409" />
      </g>
      <g
         transform="matrix(0.35277777,0,0,-0.35277777,51.550774,-28.341369)"
         id="g14100">
        <path
           inkscape:connector-curvature="0"
           id="path14102"
           style="fill:#4f4f50;fill-opacity:1;fill-rule:nonzero;stroke:none"
           d="m 0,0 h -10.819 c -4.545,0 -8.23,-3.685 -8.23,-8.23 v -54.269 h 0.01 c 0.107,-1.017 6.164,-1.838 13.63,-1.838 7.466,0 13.522,0.821 13.629,1.838 H 8.23 V -8.23 C 8.23,-3.685 4.545,0 0,0" />
      </g>
      <g
         transform="matrix(0.35277777,0,0,-0.35277777,45.791148,-6.8863775)"
         id="g14104">
        <path
           inkscape:connector-curvature="0"
           id="path14106"
           style="fill:#2e2f31;fill-opacity:1;fill-rule:nonzero;stroke:none"
           d="m 0,0 c 1.706,-0.358 5.344,-0.797 10.917,-0.797 5.573,0 9.211,0.439 10.917,0.797 v 52.587 c 0,3.037 -2.47,5.508 -5.507,5.508 H 5.507 C 2.47,58.095 0,55.624 0,52.587 Z m 24.556,-1.682 h 0.017 z M 10.917,-6.241 c -15.113,0 -16.102,2.421 -16.309,4.033 -0.034,0.17 -0.051,0.346 -0.051,0.526 v 54.269 c 0,6.039 4.911,10.952 10.95,10.952 h 10.82 c 6.039,0 10.951,-4.913 10.951,-10.952 V -1.682 c 0,-0.182 -0.018,-0.359 -0.052,-0.531 -0.209,-1.613 -1.212,-4.028 -16.309,-4.028" />
      </g>
      <g
         transform="matrix(0.35277777,0,0,-0.35277777,-175.02343,146.10745)"
         id="g14108">
        <g
           id="g14110" />
        <g
           id="g14122">
          <g
             style="opacity:0.14999402"
             id="g14120"
             clip-path="url(#clipPath14114)">
            <g
               id="g14118"
               transform="translate(642.2576,494.5007)">
              <path
                 inkscape:connector-curvature="0"
                 id="path14116"
                 style="fill:#000000;fill-opacity:1;fill-rule:nonzero;stroke:none"
                 d="m 0,0 h -9.072 c 4.545,0 8.229,-3.685 8.229,-8.23 v -54.269 h -0.01 c -0.083,-0.8 -3.855,-1.477 -9.093,-1.73 1.421,-0.069 2.943,-0.108 4.537,-0.108 7.466,0 13.522,0.821 13.629,1.838 H 8.23 V -8.23 C 8.23,-3.685 4.545,0 0,0" />
            </g>
          </g>
        </g>
      </g>
    </g>
  </g>
</svg>
