<?xml version="1.0" encoding="UTF-8" standalone="no"?>
<!-- Created with Inkscape (http://www.inkscape.org/) -->

<svg
   xmlns:dc="http://purl.org/dc/elements/1.1/"
   xmlns:cc="http://creativecommons.org/ns#"
   xmlns:rdf="http://www.w3.org/1999/02/22-rdf-syntax-ns#"
   xmlns:svg="http://www.w3.org/2000/svg"
   xmlns="http://www.w3.org/2000/svg"
   xmlns:sodipodi="http://sodipodi.sourceforge.net/DTD/sodipodi-0.dtd"
   xmlns:inkscape="http://www.inkscape.org/namespaces/inkscape"
   width="47.41383mm"
   height="47.41383mm"
   viewBox="0 0 47.41383 47.41383"
   version="1.1"
   id="svg18478"
   inkscape:version="0.92.1 r15371"
   sodipodi:docname="Cosmetic_Palette.svg">
  <defs
     id="defs18472">
    <clipPath
       id="clipPath14862"
       clipPathUnits="userSpaceOnUse">
      <path
         inkscape:connector-curvature="0"
         id="path14860"
         d="m 274.133,485.803 h 9.072 v -15.871 h -9.072 z" />
    </clipPath>
    <clipPath
       id="clipPath14880"
       clipPathUnits="userSpaceOnUse">
      <path
         inkscape:connector-curvature="0"
         id="path14878"
         d="m 274.133,460.774 h 9.072 v -82.535 h -9.072 z" />
    </clipPath>
    <clipPath
       id="clipPath14942"
       clipPathUnits="userSpaceOnUse">
      <path
         inkscape:connector-curvature="0"
         id="path14940"
         d="m 165.013,446.635 h 30.75 v -30.75 h -30.75 z" />
    </clipPath>
    <clipPath
       id="clipPath14958"
       clipPathUnits="userSpaceOnUse">
      <path
         inkscape:connector-curvature="0"
         id="path14956"
         d="m 205.049,446.635 h 30.75 v -30.75 h -30.75 z" />
    </clipPath>
    <clipPath
       id="clipPath14974"
       clipPathUnits="userSpaceOnUse">
      <path
         inkscape:connector-curvature="0"
         id="path14972"
         d="m 243.827,446.635 h 30.75 v -30.75 h -30.75 z" />
    </clipPath>
  </defs>
  <sodipodi:namedview
     id="base"
     pagecolor="#ffffff"
     bordercolor="#666666"
     borderopacity="1.0"
     inkscape:pageopacity="0.0"
     inkscape:pageshadow="2"
     inkscape:zoom="0.98994949"
     inkscape:cx="162.44642"
     inkscape:cy="140.7602"
     inkscape:document-units="mm"
     inkscape:current-layer="layer1"
     showgrid="false"
     inkscape:window-width="958"
     inkscape:window-height="1018"
     inkscape:window-x="-7"
     inkscape:window-y="0"
     inkscape:window-maximized="0" />
  <metadata
     id="metadata18475">
    <rdf:RDF>
      <cc:Work
         rdf:about="">
        <dc:format>image/svg+xml</dc:format>
        <dc:type
           rdf:resource="http://purl.org/dc/dcmitype/StillImage" />
        <dc:title></dc:title>
      </cc:Work>
    </rdf:RDF>
  </metadata>
  <g
     inkscape:label="Layer 1"
     inkscape:groupmode="layer"
     id="layer1"
     transform="translate(-36.013324,-91.108558)">
    <g
       transform="translate(157.50968,121.11543)"
       id="g11539">
      <path
         inkscape:connector-curvature="0"
         id="path14852"
         style="fill:#4f4f50;fill-opacity:1;fill-rule:nonzero;stroke:none;stroke-width:0.35277778"
         d="m -75.115002,-19.674113 h -45.348168 v -5.599289 h 45.348168 z" />
      <path
         inkscape:connector-curvature="0"
         id="path14854"
         style="fill:#2e2f31;fill-opacity:1;fill-rule:nonzero;stroke:none;stroke-width:0.35277778"
         d="m -119.50326,-20.634374 h 43.427997 v -3.678767 h -43.427997 z m 44.388258,1.920522 h -45.348528 c -0.52987,0 -0.96026,-0.430036 -0.96026,-0.960261 v -5.599289 c 0,-0.530225 0.43039,-0.959908 0.96026,-0.959908 h 45.348528 c 0.529873,0 0.959909,0.429683 0.959909,0.959908 v 5.599289 c 0,0.530225 -0.430036,0.960261 -0.959909,0.960261" />
      <g
         transform="matrix(0.35277777,0,0,-0.35277777,-175.02343,146.10745)"
         id="g14856">
        <g
           id="g14858" />
        <g
           id="g14868">
          <g
             style="opacity:0.14999402"
             id="g14866"
             clip-path="url(#clipPath14862)">
            <path
               inkscape:connector-curvature="0"
               id="path14864"
               style="fill:#000000;fill-opacity:1;fill-rule:nonzero;stroke:none"
               d="m 274.133,469.932 h 9.072 v 15.872 h -9.072 z" />
          </g>
        </g>
      </g>
      <path
         inkscape:connector-curvature="0"
         id="path14870"
         style="fill:#4f4f50;fill-opacity:1;fill-rule:nonzero;stroke:none;stroke-width:0.35277778"
         d="m -75.115002,12.673139 h -45.348168 v -29.116513 h 45.348168 z" />
      <path
         inkscape:connector-curvature="0"
         id="path14872"
         style="fill:#2e2f31;fill-opacity:1;fill-rule:nonzero;stroke:none;stroke-width:0.35277778"
         d="m -119.50326,11.712878 h 43.427997 v -27.196344 h -43.427997 z m 44.388258,1.920522 h -45.348528 c -0.52987,0 -0.96026,-0.430036 -0.96026,-0.960261 v -29.116513 c 0,-0.530225 0.43039,-0.960261 0.96026,-0.960261 h 45.348528 c 0.529873,0 0.959909,0.430036 0.959909,0.960261 v 29.116513 c 0,0.530225 -0.430036,0.960261 -0.959909,0.960261" />
      <g
         transform="matrix(0.35277777,0,0,-0.35277777,-175.02343,146.10745)"
         id="g14874">
        <g
           id="g14876" />
        <g
           id="g14886">
          <g
             style="opacity:0.14999402"
             id="g14884"
             clip-path="url(#clipPath14880)">
            <path
               inkscape:connector-curvature="0"
               id="path14882"
               style="fill:#000000;fill-opacity:1;fill-rule:nonzero;stroke:none"
               d="m 274.133,378.239 h 9.072 v 82.535 h -9.072 z" />
          </g>
        </g>
      </g>
      <g
         transform="matrix(0.35277777,0,0,-0.35277777,-114.80338,-17.97577)"
         id="g14888">
        <path
           inkscape:connector-curvature="0"
           id="path14890"
           style="fill:#ffffff;fill-opacity:1;fill-rule:nonzero;stroke:none"
           d="M 0,0 H 16.886" />
      </g>
      <g
         transform="matrix(0.35277777,0,0,-0.35277777,-108.84648,-17.015615)"
         id="g14892">
        <path
           inkscape:connector-curvature="0"
           id="path14894"
           style="fill:#2e2f31;fill-opacity:1;fill-rule:nonzero;stroke:none"
           d="m 0,0 h -16.885 c -1.503,0 -2.722,1.218 -2.722,2.722 0,1.503 1.219,2.721 2.722,2.721 H 0 C 1.503,5.443 2.722,4.225 2.722,2.722 2.722,1.218 1.503,0 0,0" />
      </g>
      <g
         transform="matrix(0.35277777,0,0,-0.35277777,-99.45374,11.080912)"
         id="g14896">
        <path
           inkscape:connector-curvature="0"
           id="path14898"
           style="fill:#ffffff;fill-opacity:1;fill-rule:nonzero;stroke:none"
           d="M 0,0 H 9.438" />
      </g>
      <g
         transform="matrix(0.35277777,0,0,-0.35277777,-96.124329,12.041244)"
         id="g14900">
        <path
           inkscape:connector-curvature="0"
           id="path14902"
           style="fill:#2e2f31;fill-opacity:1;fill-rule:nonzero;stroke:none"
           d="m 0,0 h -9.437 c -1.503,0 -2.722,1.219 -2.722,2.722 0,1.502 1.219,2.721 2.722,2.721 H 0 C 1.503,5.443 2.722,4.224 2.722,2.722 2.722,1.219 1.503,0 0,0" />
      </g>
      <g
         transform="matrix(0.35277777,0,0,-0.35277777,-86.447317,-17.97577)"
         id="g14904">
        <path
           inkscape:connector-curvature="0"
           id="path14906"
           style="fill:#ffffff;fill-opacity:1;fill-rule:nonzero;stroke:none"
           d="M 0,0 H 16.886" />
      </g>
      <g
         transform="matrix(0.35277777,0,0,-0.35277777,-80.490382,-17.015615)"
         id="g14908">
        <path
           inkscape:connector-curvature="0"
           id="path14910"
           style="fill:#2e2f31;fill-opacity:1;fill-rule:nonzero;stroke:none"
           d="m 0,0 h -16.885 c -1.503,0 -2.722,1.218 -2.722,2.722 0,1.503 1.219,2.721 2.722,2.721 H 0 C 1.503,5.443 2.722,4.225 2.722,2.722 2.722,1.218 1.503,0 0,0" />
      </g>
      <g
         transform="matrix(0.35277777,0,0,-0.35277777,-105.9626,-6.3358678)"
         id="g14912">
        <path
           inkscape:connector-curvature="0"
           id="path14914"
           style="fill:#fab89a;fill-opacity:1;fill-rule:nonzero;stroke:none"
           d="m 0,0 c 0,-8.968 -7.27,-16.238 -16.238,-16.238 -8.968,0 -16.238,7.27 -16.238,16.238 0,8.968 7.27,16.238 16.238,16.238 C -7.27,16.238 0,8.968 0,0" />
      </g>
      <g
         transform="matrix(0.35277777,0,0,-0.35277777,-111.69072,-11.103977)"
         id="g14916">
        <path
           inkscape:connector-curvature="0"
           id="path14918"
           style="fill:#2e2f31;fill-opacity:1;fill-rule:nonzero;stroke:none"
           d="m 0,0 c -7.453,0 -13.516,-6.064 -13.516,-13.516 0,-7.453 6.063,-13.515 13.516,-13.515 7.453,0 13.515,6.062 13.515,13.515 C 13.515,-6.064 7.453,0 0,0 m 0,-32.475 c -10.455,0 -18.96,8.506 -18.96,18.959 0,10.454 8.505,18.959 18.96,18.959 10.453,0 18.958,-8.505 18.958,-18.959 0,-10.453 -8.505,-18.959 -18.958,-18.959" />
      </g>
      <g
         transform="matrix(0.35277777,0,0,-0.35277777,-91.838679,-6.3358678)"
         id="g14920">
        <path
           inkscape:connector-curvature="0"
           id="path14922"
           style="fill:#fbaf3b;fill-opacity:1;fill-rule:nonzero;stroke:none"
           d="m 0,0 c 0,-8.968 -7.27,-16.238 -16.238,-16.238 -8.968,0 -16.238,7.27 -16.238,16.238 0,8.968 7.27,16.238 16.238,16.238 C -7.27,16.238 0,8.968 0,0" />
      </g>
      <g
         transform="matrix(0.35277777,0,0,-0.35277777,-97.567049,-11.103977)"
         id="g14924">
        <path
           inkscape:connector-curvature="0"
           id="path14926"
           style="fill:#2e2f31;fill-opacity:1;fill-rule:nonzero;stroke:none"
           d="m 0,0 c -7.453,0 -13.516,-6.064 -13.516,-13.516 0,-7.453 6.063,-13.515 13.516,-13.515 7.453,0 13.516,6.062 13.516,13.515 C 13.516,-6.064 7.453,0 0,0 m 0,-32.475 c -10.455,0 -18.96,8.506 -18.96,18.959 0,10.454 8.505,18.959 18.96,18.959 10.455,0 18.96,-8.505 18.96,-18.959 0,-10.453 -8.505,-18.959 -18.96,-18.959" />
      </g>
      <g
         transform="matrix(0.35277777,0,0,-0.35277777,-78.158839,-6.3358678)"
         id="g14928">
        <path
           inkscape:connector-curvature="0"
           id="path14930"
           style="fill:#ee3465;fill-opacity:1;fill-rule:nonzero;stroke:none"
           d="m 0,0 c 0,-8.968 -7.27,-16.238 -16.238,-16.238 -8.968,0 -16.238,7.27 -16.238,16.238 0,8.968 7.27,16.238 16.238,16.238 C -7.27,16.238 0,8.968 0,0" />
      </g>
      <g
         transform="matrix(0.35277777,0,0,-0.35277777,-83.887209,-11.103977)"
         id="g14932">
        <path
           inkscape:connector-curvature="0"
           id="path14934"
           style="fill:#2e2f31;fill-opacity:1;fill-rule:nonzero;stroke:none"
           d="m 0,0 c -7.453,0 -13.516,-6.064 -13.516,-13.516 0,-7.453 6.063,-13.515 13.516,-13.515 7.453,0 13.516,6.062 13.516,13.515 C 13.516,-6.064 7.453,0 0,0 m 0,-32.475 c -10.455,0 -18.96,8.506 -18.96,18.959 0,10.454 8.505,18.959 18.96,18.959 10.455,0 18.96,-8.505 18.96,-18.959 0,-10.453 -8.505,-18.959 -18.96,-18.959" />
      </g>
      <g
         transform="matrix(0.35277777,0,0,-0.35277777,-175.02343,146.10745)"
         id="g14936">
        <g
           id="g14938" />
        <g
           id="g14950">
          <g
             style="opacity:0.14999402"
             id="g14948"
             clip-path="url(#clipPath14942)">
            <g
               id="g14946"
               transform="translate(186.7793,446.6348)">
              <path
                 inkscape:connector-curvature="0"
                 id="path14944"
                 style="fill:#000000;fill-opacity:1;fill-rule:nonzero;stroke:none"
                 d="m 0,0 c 1.095,-2.185 1.726,-4.643 1.726,-7.254 0,-8.968 -7.27,-16.238 -16.238,-16.238 -2.611,0 -5.069,0.631 -7.254,1.726 2.666,-5.322 8.155,-8.984 14.512,-8.984 8.968,0 16.238,7.27 16.238,16.238 C 8.984,-8.155 5.322,-2.666 0,0" />
            </g>
          </g>
        </g>
      </g>
      <g
         transform="matrix(0.35277777,0,0,-0.35277777,-175.02343,146.10745)"
         id="g14952">
        <g
           id="g14954" />
        <g
           id="g14966">
          <g
             style="opacity:0.14999402"
             id="g14964"
             clip-path="url(#clipPath14958)">
            <g
               id="g14962"
               transform="translate(226.8155,446.6348)">
              <path
                 inkscape:connector-curvature="0"
                 id="path14960"
                 style="fill:#000000;fill-opacity:1;fill-rule:nonzero;stroke:none"
                 d="m 0,0 c 1.095,-2.185 1.726,-4.643 1.726,-7.254 0,-8.968 -7.27,-16.238 -16.238,-16.238 -2.611,0 -5.069,0.631 -7.254,1.726 2.666,-5.322 8.155,-8.984 14.512,-8.984 8.968,0 16.238,7.27 16.238,16.238 C 8.984,-8.155 5.322,-2.666 0,0" />
            </g>
          </g>
        </g>
      </g>
      <g
         transform="matrix(0.35277777,0,0,-0.35277777,-175.02343,146.10745)"
         id="g14968">
        <g
           id="g14970" />
        <g
           id="g14982">
          <g
             style="opacity:0.14999402"
             id="g14980"
             clip-path="url(#clipPath14974)">
            <g
               id="g14978"
               transform="translate(265.5931,446.6348)">
              <path
                 inkscape:connector-curvature="0"
                 id="path14976"
                 style="fill:#000000;fill-opacity:1;fill-rule:nonzero;stroke:none"
                 d="m 0,0 c 1.095,-2.185 1.726,-4.643 1.726,-7.254 0,-8.968 -7.27,-16.238 -16.238,-16.238 -2.611,0 -5.069,0.631 -7.254,1.726 2.666,-5.322 8.155,-8.984 14.512,-8.984 8.968,0 16.238,7.27 16.238,16.238 C 8.984,-8.155 5.322,-2.666 0,0" />
            </g>
          </g>
        </g>
      </g>
      <path
         inkscape:connector-curvature="0"
         id="path14984"
         style="fill:#f4a637;fill-opacity:1;fill-rule:nonzero;stroke:none;stroke-width:0.35277778"
         d="m -85.348732,6.752117 h -24.958318 v -3.2004 h 24.958318 z" />
      <path
         inkscape:connector-curvature="0"
         id="path14986"
         style="fill:#2e2f31;fill-opacity:1;fill-rule:nonzero;stroke:none;stroke-width:0.35277778"
         d="m -109.34715,5.7922086 h 23.038157 V 4.5119781 h -23.038157 z m 23.998418,1.9201695 h -24.958678 c -0.52987,0 -0.96026,-0.4300362 -0.96026,-0.9602611 v -3.2004 c 0,-0.530225 0.43039,-0.9602611 0.96026,-0.9602611 h 24.958678 c 0.530225,0 0.960261,0.4300361 0.960261,0.9602611 v 3.2004 c 0,0.5302249 -0.430036,0.9602611 -0.960261,0.9602611" />
      <path
         inkscape:connector-curvature="0"
         id="path14988"
         style="fill:#f9e7c5;fill-opacity:1;fill-rule:nonzero;stroke:none;stroke-width:0.35277778"
         d="m -104.52467,6.752117 h -5.78274 v -3.2004 h 5.78274 z" />
      <path
         inkscape:connector-curvature="0"
         id="path14990"
         style="fill:#2e2f31;fill-opacity:1;fill-rule:nonzero;stroke:none;stroke-width:0.35277778"
         d="m -109.34715,5.7922086 h 3.86257 V 4.5119781 h -3.86257 z m 4.82283,1.9201695 h -5.78309 c -0.52987,0 -0.96026,-0.4300362 -0.96026,-0.9602611 v -3.2004 c 0,-0.530225 0.43039,-0.9602611 0.96026,-0.9602611 h 5.78309 c 0.52987,0 0.95991,0.4300361 0.95991,0.9602611 v 3.2004 c 0,0.5302249 -0.43004,0.9602611 -0.95991,0.9602611" />
      <path
         inkscape:connector-curvature="0"
         id="path14992"
         style="fill:#f9e7c5;fill-opacity:1;fill-rule:nonzero;stroke:none;stroke-width:0.35277778"
         d="m -85.778063,6.752117 h -5.782733 v -3.2004 h 5.782733 z" />
      <path
         inkscape:connector-curvature="0"
         id="path14994"
         style="fill:#2e2f31;fill-opacity:1;fill-rule:nonzero;stroke:none;stroke-width:0.35277778"
         d="m -90.600182,5.7922086 h 3.861858 V 4.5119781 h -3.861858 z m 4.822119,1.9201695 h -5.78238 c -0.530225,0 -0.960261,-0.4300362 -0.960261,-0.9602611 v -3.2004 c 0,-0.530225 0.430036,-0.9602611 0.960261,-0.9602611 h 5.78238 c 0.529873,0 0.959909,0.4300361 0.959909,0.9602611 v 3.2004 c 0,0.5302249 -0.430036,0.9602611 -0.959909,0.9602611" />
      <g
         transform="matrix(0.35277777,0,0,-0.35277777,-109.84502,5.1518464)"
         id="g14996">
        <path
           inkscape:connector-curvature="0"
           id="path14998"
           style="fill:#b4824b;fill-opacity:1;fill-rule:nonzero;stroke:none"
           d="m 0,0 c 0,-4.175 -3.038,-7.56 -6.787,-7.56 -3.748,0 -11.673,3.385 -11.673,7.56 0,4.175 7.925,7.56 11.673,7.56 C -3.038,7.56 0,4.175 0,0" />
      </g>
      <g
         transform="matrix(0.35277777,0,0,-0.35277777,-112.23894,3.4447548)"
         id="g15000">
        <path
           inkscape:connector-curvature="0"
           id="path15002"
           style="fill:#2e2f31;fill-opacity:1;fill-rule:nonzero;stroke:none"
           d="m 0,0 c -3.262,0 -8.952,-3.076 -8.952,-4.839 0,-1.763 5.69,-4.839 8.952,-4.839 2.242,0 4.065,2.17 4.065,4.839 C 4.065,-2.171 2.242,0 0,0 m 0,-15.122 c -4.396,0 -14.395,3.884 -14.395,10.283 0,6.398 9.999,10.282 14.395,10.282 5.243,0 9.508,-4.612 9.508,-10.282 0,-5.67 -4.265,-10.283 -9.508,-10.283" />
      </g>
      <g
         transform="matrix(0.35277777,0,0,-0.35277777,-86.495013,5.1518464)"
         id="g15004">
        <path
           inkscape:connector-curvature="0"
           id="path15006"
           style="fill:#b4824b;fill-opacity:1;fill-rule:nonzero;stroke:none"
           d="m 0,0 c 0,-4.175 3.038,-7.56 6.787,-7.56 3.748,0 11.673,3.385 11.673,7.56 0,4.175 -7.925,7.56 -11.673,7.56 C 3.038,7.56 0,4.175 0,0" />
      </g>
      <g
         transform="matrix(0.35277777,0,0,-0.35277777,-84.101028,3.4447548)"
         id="g15008">
        <path
           inkscape:connector-curvature="0"
           id="path15010"
           style="fill:#2e2f31;fill-opacity:1;fill-rule:nonzero;stroke:none"
           d="m 0,0 c -2.242,0 -4.065,-2.171 -4.065,-4.839 0,-2.669 1.823,-4.839 4.065,-4.839 3.262,0 8.952,3.076 8.952,4.839 C 8.952,-3.076 3.262,0 0,0 m 0,-15.122 c -5.243,0 -9.508,4.613 -9.508,10.283 0,5.67 4.265,10.282 9.508,10.282 4.396,0 14.395,-3.884 14.395,-10.282 0,-6.399 -9.999,-10.283 -14.395,-10.283" />
      </g>
    </g>
  </g>
</svg>
