<?xml version="1.0" encoding="UTF-8" standalone="no"?>
<!-- Created with Inkscape (http://www.inkscape.org/) -->

<svg
   xmlns:dc="http://purl.org/dc/elements/1.1/"
   xmlns:cc="http://creativecommons.org/ns#"
   xmlns:rdf="http://www.w3.org/1999/02/22-rdf-syntax-ns#"
   xmlns:svg="http://www.w3.org/2000/svg"
   xmlns="http://www.w3.org/2000/svg"
   xmlns:sodipodi="http://sodipodi.sourceforge.net/DTD/sodipodi-0.dtd"
   xmlns:inkscape="http://www.inkscape.org/namespaces/inkscape"
   width="47.41383mm"
   height="47.41383mm"
   viewBox="0 0 47.41383 47.41383"
   version="1.1"
   id="svg13728"
   inkscape:version="0.92.1 r15371"
   sodipodi:docname="Cosmetic_Blush.svg">
  <defs
     id="defs13722">
    <clipPath
       id="clipPath13652"
       clipPathUnits="userSpaceOnUse">
      <path
         inkscape:connector-curvature="0"
         id="path13650"
         d="m 211.379,637.289 h 69.958 v -69.957 h -69.958 z" />
    </clipPath>
    <clipPath
       id="clipPath13676"
       clipPathUnits="userSpaceOnUse">
      <path
         inkscape:connector-curvature="0"
         id="path13674"
         d="m 220.96,627.708 h 46.975 V 580.734 H 220.96 Z" />
    </clipPath>
    <clipPath
       id="clipPath13696"
       clipPathUnits="userSpaceOnUse">
      <path
         inkscape:connector-curvature="0"
         id="path13694"
         d="m 272.264,658.574 h 9.073 v -13.219 h -9.073 z" />
    </clipPath>
    <clipPath
       id="clipPath13734"
       clipPathUnits="userSpaceOnUse">
      <path
         inkscape:connector-curvature="0"
         id="path13732"
         d="m 169.309,652.613 h 12.836 v -85.571 h -12.836 z" />
    </clipPath>
    <clipPath
       id="clipPath13758"
       clipPathUnits="userSpaceOnUse">
      <path
         inkscape:connector-curvature="0"
         id="path13756"
         d="M 169.309,690.33 H 193.67 V 650.466 H 169.309 Z" />
    </clipPath>
  </defs>
  <sodipodi:namedview
     id="base"
     pagecolor="#ffffff"
     bordercolor="#666666"
     borderopacity="1.0"
     inkscape:pageopacity="0.0"
     inkscape:pageshadow="2"
     inkscape:zoom="1.4"
     inkscape:cx="-11.605974"
     inkscape:cy="137.5697"
     inkscape:document-units="mm"
     inkscape:current-layer="layer1"
     showgrid="false"
     inkscape:window-width="1920"
     inkscape:window-height="1027"
     inkscape:window-x="-8"
     inkscape:window-y="-8"
     inkscape:window-maximized="1" />
  <metadata
     id="metadata13725">
    <rdf:RDF>
      <cc:Work
         rdf:about="">
        <dc:format>image/svg+xml</dc:format>
        <dc:type
           rdf:resource="http://purl.org/dc/dcmitype/StillImage" />
        <dc:title></dc:title>
      </cc:Work>
    </rdf:RDF>
  </metadata>
  <g
     inkscape:label="Layer 1"
     inkscape:groupmode="layer"
     id="layer1"
     transform="translate(-29.209751,-46.507369)">
    <g
       id="g11327"
       transform="translate(151.14794,146.89337)">
      <g
         transform="matrix(0.35277777,0,0,-0.35277777,-75.774167,-67.797058)"
         id="g13638">
        <path
           inkscape:connector-curvature="0"
           id="path13640"
           style="fill:#4f4f50;fill-opacity:1;fill-rule:nonzero;stroke:none"
           d="m 0,0 c 0,-21.545 -17.466,-39.011 -39.011,-39.011 -21.546,0 -39.012,17.466 -39.012,39.011 0,21.545 17.466,39.011 39.012,39.011 C -17.466,39.011 0,21.545 0,0" />
      </g>
      <g
         transform="matrix(0.35277777,0,0,-0.35277777,-89.53631,-80.599257)"
         id="g13642">
        <path
           inkscape:connector-curvature="0"
           id="path13644"
           style="fill:#2e2f31;fill-opacity:1;fill-rule:nonzero;stroke:none"
           d="m 0,0 c -20.011,0 -36.29,-16.28 -36.29,-36.29 0,-20.009 16.279,-36.289 36.29,-36.289 20.011,0 36.29,16.28 36.29,36.289 C 36.29,-16.28 20.011,0 0,0 m 0,-78.023 c -23.012,0 -41.733,18.722 -41.733,41.733 0,23.012 18.721,41.733 41.733,41.733 23.012,0 41.733,-18.721 41.733,-41.733 0,-23.011 -18.721,-41.733 -41.733,-41.733" />
      </g>
      <g
         transform="matrix(0.35277777,0,0,-0.35277777,-175.02343,146.10745)"
         id="g13646">
        <g
           id="g13648" />
        <g
           id="g13660">
          <g
             style="opacity:0.14999402"
             id="g13658"
             clip-path="url(#clipPath13652)">
            <g
               id="g13656"
               transform="translate(266.0132,637.2892)">
              <path
                 inkscape:connector-curvature="0"
                 id="path13654"
                 style="fill:#000000;fill-opacity:1;fill-rule:nonzero;stroke:none"
                 d="m 0,0 c 5.038,-6.572 8.065,-14.767 8.065,-23.688 0,-21.545 -17.466,-39.011 -39.011,-39.011 -8.921,0 -17.116,3.027 -23.688,8.065 7.13,-9.3 18.321,-15.323 30.946,-15.323 21.545,0 39.011,17.466 39.011,39.011 C 15.323,-18.321 9.3,-7.13 0,0" />
            </g>
          </g>
        </g>
      </g>
      <g
         transform="matrix(0.35277777,0,0,-0.35277777,-80.501953,-67.797058)"
         id="g13662">
        <path
           inkscape:connector-curvature="0"
           id="path13664"
           style="fill:#fab89a;fill-opacity:1;fill-rule:nonzero;stroke:none"
           d="m 0,0 c 0,-14.144 -11.466,-25.61 -25.61,-25.61 -14.144,0 -25.61,11.466 -25.61,25.61 0,14.144 11.466,25.61 25.61,25.61 C -11.466,25.61 0,14.144 0,0" />
      </g>
      <g
         transform="matrix(0.35277777,0,0,-0.35277777,-89.53631,-75.871576)"
         id="g13666">
        <path
           inkscape:connector-curvature="0"
           id="path13668"
           style="fill:#2e2f31;fill-opacity:1;fill-rule:nonzero;stroke:none"
           d="m 0,0 c -12.62,0 -22.888,-10.268 -22.888,-22.888 0,-12.621 10.268,-22.889 22.888,-22.889 12.62,0 22.888,10.268 22.888,22.889 C 22.888,-10.268 12.62,0 0,0 m 0,-51.22 c -15.622,0 -28.332,12.709 -28.332,28.332 0,15.622 12.71,28.331 28.332,28.331 15.622,0 28.332,-12.709 28.332,-28.331 C 28.332,-38.511 15.622,-51.22 0,-51.22" />
      </g>
      <g
         transform="matrix(0.35277777,0,0,-0.35277777,-175.02343,146.10745)"
         id="g13670">
        <g
           id="g13672" />
        <g
           id="g13684">
          <g
             style="opacity:0.14999402"
             id="g13682"
             clip-path="url(#clipPath13676)">
            <g
               id="g13680"
               transform="translate(256.4319,627.7083)">
              <path
                 inkscape:connector-curvature="0"
                 id="path13678"
                 style="fill:#000000;fill-opacity:1;fill-rule:nonzero;stroke:none"
                 d="m 0,0 c 2.677,-4.047 4.245,-8.891 4.245,-14.107 0,-14.144 -11.466,-25.609 -25.61,-25.609 -5.215,0 -10.06,1.567 -14.107,4.245 4.584,-6.928 12.437,-11.503 21.365,-11.503 14.144,0 25.61,11.465 25.61,25.609 C 11.503,-12.436 6.928,-4.583 0,0" />
            </g>
          </g>
        </g>
      </g>
      <path
         inkscape:connector-curvature="0"
         id="path13686"
         style="fill:#4f4f50;fill-opacity:1;fill-rule:nonzero;stroke:none;stroke-width:0.35277778"
         d="m -75.774343,-81.559448 h -27.524777 v -4.663369 h 27.524777 z" />
      <path
         inkscape:connector-curvature="0"
         id="path13688"
         style="fill:#2e2f31;fill-opacity:1;fill-rule:nonzero;stroke:none;stroke-width:0.35277778"
         d="m -102.33851,-82.519709 h 25.604258 v -2.742847 h -25.604258 z m 26.564519,1.920522 h -27.524779 c -0.52987,0 -0.95991,-0.429683 -0.95991,-0.960261 v -4.663369 c 0,-0.530225 0.43004,-0.959908 0.95991,-0.959908 h 27.524779 c 0.530225,0 0.960262,0.429683 0.960262,0.959908 v 4.663369 c 0,0.530578 -0.430037,0.960261 -0.960262,0.960261" />
      <g
         transform="matrix(0.35277777,0,0,-0.35277777,-175.02343,146.10745)"
         id="g13690">
        <g
           id="g13692" />
        <g
           id="g13702">
          <g
             style="opacity:0.14999402"
             id="g13700"
             clip-path="url(#clipPath13696)">
            <path
               inkscape:connector-curvature="0"
               id="path13698"
               style="fill:#000000;fill-opacity:1;fill-rule:nonzero;stroke:none"
               d="m 272.264,645.355 h 9.072 v 13.219 h -9.072 z" />
          </g>
        </g>
      </g>
      <g
         transform="matrix(0.35277777,0,0,-0.35277777,-93.631778,-79.861105)"
         id="g13704">
        <path
           inkscape:connector-curvature="0"
           id="path13706"
           style="fill:#ffffff;fill-opacity:1;fill-rule:nonzero;stroke:none"
           d="M 0,0 H 23.199" />
      </g>
      <g
         transform="matrix(0.35277777,0,0,-0.35277777,-85.447474,-78.900844)"
         id="g13708">
        <path
           inkscape:connector-curvature="0"
           id="path13710"
           style="fill:#2e2f31;fill-opacity:1;fill-rule:nonzero;stroke:none"
           d="m 0,0 h -23.2 c -1.503,0 -2.722,1.218 -2.722,2.722 0,1.503 1.219,2.721 2.722,2.721 H 0 C 1.503,5.443 2.722,4.225 2.722,2.722 2.722,1.218 1.503,0 0,0" />
      </g>
      <g
         transform="matrix(0.35277777,0,0,-0.35277777,-91.03244,-55.552635)"
         id="g13712">
        <path
           inkscape:connector-curvature="0"
           id="path13714"
           style="fill:#ffffff;fill-opacity:1;fill-rule:nonzero;stroke:none"
           d="M 0,0 H 7.35" />
      </g>
      <g
         transform="matrix(0.35277777,0,0,-0.35277777,-88.439242,-54.592339)"
         id="g13716">
        <path
           inkscape:connector-curvature="0"
           id="path13718"
           style="fill:#2e2f31;fill-opacity:1;fill-rule:nonzero;stroke:none"
           d="m 0,0 h -7.35 c -1.503,0 -2.722,1.218 -2.722,2.722 0,1.503 1.219,2.721 2.722,2.721 H 0 C 1.503,5.443 2.722,4.225 2.722,2.722 2.722,1.218 1.503,0 0,0" />
      </g>
      <g
         transform="matrix(0.35277777,0,0,-0.35277777,-112.3804,-53.932292)"
         id="g13720">
        <path
           inkscape:connector-curvature="0"
           id="path13722"
           style="fill:#4f4f50;fill-opacity:1;fill-rule:nonzero;stroke:none"
           d="m 0,0 h -7.451 c -2.526,0 -4.574,2.048 -4.574,4.574 V 85.571 H 4.574 V 4.574 C 4.574,2.048 2.526,0 0,0" />
      </g>
      <g
         transform="matrix(0.35277777,0,0,-0.35277777,-115.66264,-83.159718)"
         id="g13724">
        <path
           inkscape:connector-curvature="0"
           id="path13726"
           style="fill:#2e2f31;fill-opacity:1;fill-rule:nonzero;stroke:none"
           d="m 0,0 v -74.55 c 0,-3.076 2.502,-5.578 5.578,-5.578 3.076,0 5.578,2.502 5.578,5.578 V 0 Z m 5.578,-85.571 c -6.078,0 -11.021,4.944 -11.021,11.021 V 2.722 c 0,1.503 1.219,2.721 2.721,2.721 h 16.6 c 1.503,0 2.722,-1.218 2.722,-2.721 V -74.55 c 0,-6.077 -4.944,-11.021 -11.022,-11.021" />
      </g>
      <g
         transform="matrix(0.35277777,0,0,-0.35277777,-175.02343,146.10745)"
         id="g13728">
        <g
           id="g13730" />
        <g
           id="g13742">
          <g
             style="opacity:0.14999402"
             id="g13740"
             clip-path="url(#clipPath13734)">
            <g
               id="g13738"
               transform="translate(173.0723,652.6129)">
              <path
                 inkscape:connector-curvature="0"
                 id="path13736"
                 style="fill:#000000;fill-opacity:1;fill-rule:nonzero;stroke:none"
                 d="m 0,0 v -77.272 c 0,-2.907 -1.5,-5.456 -3.763,-6.938 1.305,-0.855 2.859,-1.361 4.536,-1.361 4.584,0 8.299,3.716 8.299,8.299 V 0 Z" />
            </g>
          </g>
        </g>
      </g>
      <g
         transform="matrix(0.35277777,0,0,-0.35277777,-106.70082,-97.425663)"
         id="g13744">
        <path
           inkscape:connector-curvature="0"
           id="path13746"
           style="fill:#b4824b;fill-opacity:1;fill-rule:nonzero;stroke:none"
           d="M 0,0 H -19.825 -39.65 l 11.526,-37.717 h 0.079 c 0.405,-1.203 3.908,-2.147 8.22,-2.147 4.312,0 7.814,0.944 8.219,2.147 h 0.08 z" />
      </g>
      <g
         transform="matrix(0.35277777,0,0,-0.35277777,-115.68452,-84.427108)"
         id="g13748">
        <path
           inkscape:connector-curvature="0"
           id="path13750"
           style="fill:#2e2f31;fill-opacity:1;fill-rule:nonzero;stroke:none"
           d="M 0,0 C 0,-0.001 0.002,-0.003 0.002,-0.004 0.002,-0.003 0,-0.001 0,0 m -0.257,0.582 c 0.686,-0.333 2.72,-0.878 5.897,-0.878 3.175,0 5.21,0.544 5.897,0.877 L 21.788,34.124 H -10.508 Z M 5.64,-5.739 c -2.575,0 -8.346,0.32 -10.314,3.062 -0.266,0.285 -0.472,0.628 -0.589,1.01 L -16.788,36.05 c -0.251,0.826 -0.097,1.722 0.415,2.415 0.514,0.694 1.326,1.103 2.188,1.103 h 39.65 c 0.863,0 1.674,-0.409 2.188,-1.103 0.512,-0.693 0.666,-1.589 0.415,-2.415 L 16.543,-1.667 C 16.412,-2.096 16.18,-2.475 15.878,-2.781 13.839,-5.427 8.181,-5.739 5.64,-5.739" />
      </g>
      <g
         transform="matrix(0.35277777,0,0,-0.35277777,-175.02343,146.10745)"
         id="g13752">
        <g
           id="g13754" />
        <g
           id="g13766">
          <g
             style="opacity:0.14999402"
             id="g13764"
             clip-path="url(#clipPath13758)">
            <g
               id="g13762"
               transform="translate(184.598,690.3301)">
              <path
                 inkscape:connector-curvature="0"
                 id="path13760"
                 style="fill:#000000;fill-opacity:1;fill-rule:nonzero;stroke:none"
                 d="m 0,0 -11.526,-37.717 h -0.08 c -0.246,-0.733 -1.653,-1.367 -3.683,-1.753 1.301,-0.247 2.852,-0.394 4.536,-0.394 4.312,0 7.815,0.944 8.22,2.147 h 0.08 L 9.072,0 Z" />
            </g>
          </g>
        </g>
      </g>
      <g
         transform="matrix(0.35277777,0,0,-0.35277777,-106.70082,-97.425663)"
         id="g13768">
        <path
           inkscape:connector-curvature="0"
           id="path13770"
           style="fill:#b4824b;fill-opacity:1;fill-rule:nonzero;stroke:none"
           d="m 0,0 c 0,-3.132 -8.876,-5.67 -19.825,-5.67 -10.949,0 -19.825,2.538 -19.825,5.67 0,3.132 8.876,5.67 19.825,5.67 C -8.876,5.67 0,3.132 0,0" />
      </g>
      <g
         transform="matrix(0.35277777,0,0,-0.35277777,-107.62379,-97.269912)"
         id="g13772">
        <path
           inkscape:connector-curvature="0"
           id="path13774"
           style="fill:#2e2f31;fill-opacity:1;fill-rule:nonzero;stroke:none"
           d="m 0,0 h 0.018 z m -33.928,0.441 c 1.769,-1.198 7.547,-2.948 16.719,-2.948 9.171,0 14.95,1.75 16.718,2.948 -1.768,1.198 -7.547,2.949 -16.718,2.949 -9.172,0 -14.95,-1.751 -16.719,-2.949 m 16.719,-8.392 c -2.307,0 -22.547,0.236 -22.547,8.392 0,8.157 20.24,8.392 22.547,8.392 2.307,0 22.546,-0.235 22.546,-8.392 0,-8.156 -20.239,-8.392 -22.546,-8.392" />
      </g>
      <g
         transform="matrix(0.35277777,0,0,-0.35277777,-113.69467,-95.425307)"
         id="g13776">
        <path
           inkscape:connector-curvature="0"
           id="path13778"
           style="fill:#b4824b;fill-opacity:1;fill-rule:nonzero;stroke:none"
           d="M 0,0 V -9.45" />
      </g>
      <g
         transform="matrix(0.35277777,0,0,-0.35277777,-113.69481,-91.131367)"
         id="g13780">
        <path
           inkscape:connector-curvature="0"
           id="path13782"
           style="fill:#2e2f31;fill-opacity:1;fill-rule:nonzero;stroke:none"
           d="m 0,0 c -1.503,0 -2.722,1.218 -2.722,2.722 v 9.45 c 0,1.503 1.219,2.721 2.722,2.721 1.503,0 2.722,-1.218 2.722,-2.721 V 2.722 C 2.722,1.218 1.503,0 0,0" />
      </g>
      <g
         transform="matrix(0.35277777,0,0,-0.35277777,-117.04825,-95.425307)"
         id="g13784">
        <path
           inkscape:connector-curvature="0"
           id="path13786"
           style="fill:#b4824b;fill-opacity:1;fill-rule:nonzero;stroke:none"
           d="M 0,0 2.156,-9.45" />
      </g>
      <g
         transform="matrix(0.35277777,0,0,-0.35277777,-116.28837,-91.131049)"
         id="g13788">
        <path
           inkscape:connector-curvature="0"
           id="path13790"
           style="fill:#2e2f31;fill-opacity:1;fill-rule:nonzero;stroke:none"
           d="m 0,0 c -1.242,0 -2.364,0.855 -2.653,2.117 l -2.156,9.45 c -0.333,1.466 0.583,2.925 2.048,3.259 1.469,0.33 2.926,-0.582 3.261,-2.048 L 2.656,3.328 C 2.989,1.862 2.073,0.403 0.608,0.069 0.404,0.023 0.2,0 0,0" />
      </g>
      <g
         transform="matrix(0.35277777,0,0,-0.35277777,-110.34106,-95.425307)"
         id="g13792">
        <path
           inkscape:connector-curvature="0"
           id="path13794"
           style="fill:#b4824b;fill-opacity:1;fill-rule:nonzero;stroke:none"
           d="M 0,0 -2.156,-9.45" />
      </g>
      <g
         transform="matrix(0.35277777,0,0,-0.35277777,-111.10126,-91.131049)"
         id="g13796">
        <path
           inkscape:connector-curvature="0"
           id="path13798"
           style="fill:#2e2f31;fill-opacity:1;fill-rule:nonzero;stroke:none"
           d="m 0,0 c -0.2,0 -0.404,0.022 -0.608,0.069 -1.465,0.334 -2.381,1.793 -2.048,3.259 l 2.156,9.45 c 0.335,1.465 1.794,2.386 3.261,2.048 1.465,-0.334 2.381,-1.793 2.048,-3.259 L 2.653,2.117 C 2.364,0.856 1.242,0 0,0" />
      </g>
    </g>
  </g>
</svg>
