<?xml version="1.0" encoding="UTF-8" standalone="no"?>
<!-- Created with Inkscape (http://www.inkscape.org/) -->

<svg
   xmlns:dc="http://purl.org/dc/elements/1.1/"
   xmlns:cc="http://creativecommons.org/ns#"
   xmlns:rdf="http://www.w3.org/1999/02/22-rdf-syntax-ns#"
   xmlns:svg="http://www.w3.org/2000/svg"
   xmlns="http://www.w3.org/2000/svg"
   xmlns:sodipodi="http://sodipodi.sourceforge.net/DTD/sodipodi-0.dtd"
   xmlns:inkscape="http://www.inkscape.org/namespaces/inkscape"
   width="46.655773mm"
   height="46.655777mm"
   viewBox="0 0 46.655773 46.655777"
   version="1.1"
   id="svg27804"
   inkscape:version="0.92.1 r15371"
   sodipodi:docname="Cosmetic_LipStick.svg">
  <defs
     id="defs27798">
    <clipPath
       id="clipPath13814"
       clipPathUnits="userSpaceOnUse">
      <path
         inkscape:connector-curvature="0"
         id="path13812"
         d="m 399.883,630.417 h 23.506 v -62.25 h -23.506 z" />
    </clipPath>
    <clipPath
       id="clipPath13838"
       clipPathUnits="userSpaceOnUse">
      <path
         inkscape:connector-curvature="0"
         id="path13836"
         d="m 457.121,636.189 h 23.506 v -68.022 h -23.506 z" />
    </clipPath>
    <clipPath
       id="clipPath13878"
       clipPathUnits="userSpaceOnUse">
      <path
         inkscape:connector-curvature="0"
         id="path13876"
         d="m 399.568,643.607 h 19.145 v -16.592 h -19.145 z" />
    </clipPath>
    <clipPath
       id="clipPath13910"
       clipPathUnits="userSpaceOnUse">
      <path
         inkscape:connector-curvature="0"
         id="path13908"
         d="m 399.883,693.612 h 15.681 V 643.04 h -15.681 z" />
    </clipPath>
  </defs>
  <sodipodi:namedview
     id="base"
     pagecolor="#ffffff"
     bordercolor="#666666"
     borderopacity="1.0"
     inkscape:pageopacity="0.0"
     inkscape:pageshadow="2"
     inkscape:zoom="0.49497475"
     inkscape:cx="215.59663"
     inkscape:cy="47.880339"
     inkscape:document-units="mm"
     inkscape:current-layer="layer1"
     showgrid="false"
     inkscape:window-width="779"
     inkscape:window-height="419"
     inkscape:window-x="133"
     inkscape:window-y="158"
     inkscape:window-maximized="0" />
  <metadata
     id="metadata27801">
    <rdf:RDF>
      <cc:Work
         rdf:about="">
        <dc:format>image/svg+xml</dc:format>
        <dc:type
           rdf:resource="http://purl.org/dc/dcmitype/StillImage" />
        <dc:title></dc:title>
      </cc:Work>
    </rdf:RDF>
  </metadata>
  <g
     inkscape:label="Layer 1"
     inkscape:groupmode="layer"
     id="layer1"
     transform="translate(84.560029,-111.14235)">
    <g
       transform="translate(-38.97479,211.16742)"
       id="g11385">
      <g
         transform="matrix(0.35277777,0,0,-0.35277777,-39.045521,-76.289583)"
         id="g13800">
        <path
           inkscape:connector-curvature="0"
           id="path13802"
           style="fill:#4f4f50;fill-opacity:1;fill-rule:nonzero;stroke:none"
           d="m 0,0 v -58.708 c 0,-1.956 8.493,-3.541 18.97,-3.541 10.476,0 18.969,1.585 18.969,3.541 V 0" />
      </g>
      <g
         transform="matrix(0.35277777,0,0,-0.35277777,-32.353432,-53.369294)"
         id="g13804">
        <path
           inkscape:connector-curvature="0"
           id="path13806"
           style="fill:#2e2f31;fill-opacity:1;fill-rule:nonzero;stroke:none"
           d="m 0,0 c -17.929,0 -21.692,3.406 -21.692,6.263 v 58.708 c 0,1.503 1.219,2.721 2.721,2.721 1.503,0 2.722,-1.218 2.722,-2.721 V 7.305 C -14.39,6.537 -8.739,5.443 0,5.443 c 8.739,0 14.39,1.094 16.249,1.862 v 57.666 c 0,1.503 1.219,2.721 2.722,2.721 1.502,0 2.721,-1.218 2.721,-2.721 V 6.263 C 21.692,3.406 17.929,0 0,0" />
      </g>
      <g
         transform="matrix(0.35277777,0,0,-0.35277777,-175.02343,146.10745)"
         id="g13808">
        <g
           id="g13810" />
        <g
           id="g13822">
          <g
             style="opacity:0.14999402"
             id="g13820"
             clip-path="url(#clipPath13814)">
            <g
               id="g13818"
               transform="translate(414.3162,630.4168)">
              <path
                 inkscape:connector-curvature="0"
                 id="path13816"
                 style="fill:#000000;fill-opacity:1;fill-rule:nonzero;stroke:none"
                 d="m 0,0 v -58.708 c 0,-1.663 -6.151,-3.055 -14.433,-3.435 1.456,-0.067 2.969,-0.106 4.536,-0.106 10.476,0 18.969,1.585 18.969,3.541 L 9.072,0 Z" />
            </g>
          </g>
        </g>
      </g>
      <g
         transform="matrix(0.35277777,0,0,-0.35277777,-12.160927,-78.325851)"
         id="g13824">
        <path
           inkscape:connector-curvature="0"
           id="path13826"
           style="fill:#4f4f50;fill-opacity:1;fill-rule:nonzero;stroke:none"
           d="m 0,0 c -10.477,0 -18.97,-8.493 -18.97,-18.97 v -45.584 c 0,-1.915 8.493,-3.467 18.97,-3.467 10.477,0 18.97,1.552 18.97,3.467 V -18.97 C 18.97,-8.493 10.477,0 0,0" />
      </g>
      <g
         transform="matrix(0.35277777,0,0,-0.35277777,-17.89286,-55.930989)"
         id="g13828">
        <path
           inkscape:connector-curvature="0"
           id="path13830"
           style="fill:#2e2f31;fill-opacity:1;fill-rule:nonzero;stroke:none"
           d="m 0,0 c 1.884,-0.753 7.534,-1.818 16.247,-1.818 8.715,0 14.364,1.065 16.249,1.818 v 44.512 c 0,8.959 -7.29,16.248 -16.249,16.248 C 7.288,60.76 0,53.471 0,44.512 Z m 16.247,-7.261 c -14.394,0 -21.69,2.082 -21.69,6.188 v 45.585 c 0,11.96 9.729,21.691 21.69,21.691 11.961,0 21.692,-9.731 21.692,-21.691 V -1.073 c 0,-4.106 -7.298,-6.188 -21.692,-6.188" />
      </g>
      <g
         transform="matrix(0.35277777,0,0,-0.35277777,-175.02343,146.10745)"
         id="g13832">
        <g
           id="g13834" />
        <g
           id="g13846">
          <g
             style="opacity:0.14999402"
             id="g13844"
             clip-path="url(#clipPath13838)">
            <g
               id="g13842"
               transform="translate(461.6575,636.189)">
              <path
                 inkscape:connector-curvature="0"
                 id="path13840"
                 style="fill:#000000;fill-opacity:1;fill-rule:nonzero;stroke:none"
                 d="M 0,0 C -1.566,0 -3.08,-0.211 -4.536,-0.569 3.746,-2.605 9.897,-10.06 9.897,-18.97 v -45.584 c 0,-1.629 -6.151,-2.991 -14.433,-3.364 1.456,-0.065 2.97,-0.104 4.536,-0.104 10.477,0 18.97,1.553 18.97,3.468 V -18.97 C 18.97,-8.493 10.477,0 0,0" />
            </g>
          </g>
        </g>
      </g>
      <g
         transform="matrix(0.35277777,0,0,-0.35277777,-25.661344,-76.289583)"
         id="g13848">
        <path
           inkscape:connector-curvature="0"
           id="path13850"
           style="fill:#ffffff;fill-opacity:1;fill-rule:nonzero;stroke:none"
           d="m 0,0 c 0,-1.879 -8.493,-3.402 -18.97,-3.402 -10.476,0 -18.969,1.523 -18.969,3.402 0,1.879 8.493,3.402 18.969,3.402 C -8.493,3.402 0,1.879 0,0" />
      </g>
      <g
         transform="matrix(0.35277777,0,0,-0.35277777,-36.295971,-76.289442)"
         id="g13852">
        <path
           inkscape:connector-curvature="0"
           id="path13854"
           style="fill:#2e2f31;fill-opacity:1;fill-rule:nonzero;stroke:none"
           d="m 0,0 c 2.796,-0.386 6.556,-0.68 11.176,-0.68 4.619,0 8.379,0.294 11.175,0.68 C 19.555,0.386 15.795,0.68 11.176,0.68 6.556,0.68 2.796,0.386 0,0 m 27.995,-1.384 h 0.018 z m -16.819,-4.74 c -14.394,0 -21.693,2.061 -21.693,6.124 0,4.063 7.299,6.124 21.693,6.124 14.393,0 21.692,-2.061 21.692,-6.124 0,-4.063 -7.299,-6.124 -21.692,-6.124" />
      </g>
      <g
         transform="matrix(0.35277777,0,0,-0.35277777,-25.661344,-76.289583)"
         id="g13856">
        <path
           inkscape:connector-curvature="0"
           id="path13858"
           style="fill:#ffffff;fill-opacity:1;fill-rule:nonzero;stroke:none"
           d="m 0,0 c 0,-1.879 -8.493,-3.402 -18.97,-3.402 -10.476,0 -18.969,1.523 -18.969,3.402 0,1.879 8.493,3.402 18.969,3.402 C -8.493,3.402 0,1.879 0,0" />
      </g>
      <g
         transform="matrix(0.35277777,0,0,-0.35277777,-36.295971,-76.289442)"
         id="g13860">
        <path
           inkscape:connector-curvature="0"
           id="path13862"
           style="fill:#2e2f31;fill-opacity:1;fill-rule:nonzero;stroke:none"
           d="m 0,0 c 2.796,-0.386 6.556,-0.68 11.176,-0.68 4.619,0 8.379,0.294 11.175,0.68 C 19.555,0.386 15.795,0.68 11.176,0.68 6.556,0.68 2.796,0.386 0,0 m 27.995,-1.384 h 0.018 z m -16.819,-4.74 c -14.394,0 -21.693,2.061 -21.693,6.124 0,4.063 7.299,6.124 21.693,6.124 14.393,0 21.692,-2.061 21.692,-6.124 0,-4.063 -7.299,-6.124 -21.692,-6.124" />
      </g>
      <g
         transform="matrix(0.35277777,0,0,-0.35277777,-27.310756,-75.541906)"
         id="g13864">
        <path
           inkscape:connector-curvature="0"
           id="path13866"
           style="fill:#e2e2e2;fill-opacity:1;fill-rule:nonzero;stroke:none"
           d="M 0,0 C 0,0 -5.794,-1.283 -14.64,-1.283 -23.485,-1.283 -28.588,0 -28.588,0 V 15.31 H 0 Z" />
      </g>
      <g
         transform="matrix(0.35277777,0,0,-0.35277777,-36.435988,-76.335409)"
         id="g13868">
        <path
           inkscape:connector-curvature="0"
           id="path13870"
           style="fill:#2e2f31;fill-opacity:1;fill-rule:nonzero;stroke:none"
           d="m 0,0 c 2.187,-0.351 6.042,-0.811 11.227,-0.811 5.364,0 9.556,0.486 11.918,0.845 V 10.339 H 0 Z m 25.867,-2.25 h 0.018 z m -14.64,-4.004 c -9.078,0 -14.39,1.309 -14.611,1.365 -1.211,0.304 -2.059,1.392 -2.059,2.639 v 15.31 c 0,1.504 1.219,2.722 2.721,2.722 h 28.589 c 1.503,0 2.722,-1.218 2.722,-2.722 V -2.25 c 0,-1.276 -0.888,-2.381 -2.134,-2.657 -0.248,-0.054 -6.189,-1.347 -15.228,-1.347" />
      </g>
      <g
         transform="matrix(0.35277777,0,0,-0.35277777,-175.02343,146.10745)"
         id="g13872">
        <g
           id="g13874" />
        <g
           id="g13886">
          <g
             style="opacity:0.14999402"
             id="g13884"
             clip-path="url(#clipPath13878)">
            <g
               id="g13882"
               transform="translate(409.6407,643.6071)">
              <path
                 inkscape:connector-curvature="0"
                 id="path13880"
                 style="fill:#000000;fill-opacity:1;fill-rule:nonzero;stroke:none"
                 d="m 0,0 v -15.31 c 0,0 -3.854,-0.852 -10.072,-1.167 1.369,-0.071 2.872,-0.115 4.505,-0.115 8.845,0 14.639,1.282 14.639,1.282 V 0 Z" />
            </g>
          </g>
        </g>
      </g>
      <g
         transform="matrix(0.35277777,0,0,-0.35277777,-27.310756,-81.222862)"
         id="g13888">
        <path
           inkscape:connector-curvature="0"
           id="path13890"
           style="fill:#ffffff;fill-opacity:1;fill-rule:nonzero;stroke:none"
           d="m 0,0 c 0,-0.752 -6.4,-1.361 -14.294,-1.361 -7.895,0 -14.294,0.609 -14.294,1.361 0,0.752 6.399,1.361 14.294,1.361 C -6.4,1.361 0,0.752 0,0" />
      </g>
      <g
         transform="matrix(0.35277777,0,0,-0.35277777,-27.802634,-80.442377)"
         id="g13892">
        <path
           inkscape:connector-curvature="0"
           id="path13894"
           style="fill:#2e2f31;fill-opacity:1;fill-rule:nonzero;stroke:none"
           d="m 0,0 h 0.018 z m -12.9,-1.87 c -17.016,0 -17.016,1.891 -17.016,4.082 0,2.191 0,4.083 17.016,4.083 17.016,0 17.016,-1.892 17.016,-4.083 0,-2.191 0,-4.082 -17.016,-4.082" />
      </g>
      <g
         transform="matrix(0.35277777,0,0,-0.35277777,-28.541739,-81.555567)"
         id="g13896">
        <path
           inkscape:connector-curvature="0"
           id="path13898"
           style="fill:#ee3465;fill-opacity:1;fill-rule:nonzero;stroke:none"
           d="M 0,0 H 0.286 V 48.268 L -21.896,35.634 V 0 h 0.286 c -0.214,-0.144 -0.34,-0.293 -0.34,-0.448 0,-1.025 4.99,-1.856 11.145,-1.856 6.155,0 11.145,0.831 11.145,1.856 C 0.34,-0.293 0.214,-0.144 0,0" />
      </g>
      <g
         transform="matrix(0.35277777,0,0,-0.35277777,-35.285192,-81.94013)"
         id="g13900">
        <path
           inkscape:connector-curvature="0"
           id="path13902"
           style="fill:#2e2f31;fill-opacity:1;fill-rule:nonzero;stroke:none"
           d="m 0,0 c 1.446,-0.314 4.24,-0.672 8.31,-0.672 4.071,0 6.865,0.358 8.311,0.672 0.019,0.042 0.039,0.083 0.058,0.124 V 42.496 L -0.058,32.962 V 0.124 C -0.039,0.083 -0.02,0.042 0,0 m -0.964,-3.339 c 0,-10e-4 -0.002,-0.002 -0.002,-0.002 0,0 0.002,0.001 0.002,0.002 m 18.549,0 c 0,-10e-4 0.002,-0.002 0.002,-0.002 0,0 -0.002,0.001 -0.002,0.002 M 8.31,-6.116 c -13.867,0 -13.867,3.092 -13.867,4.578 0,0.158 0.013,0.353 0.055,0.571 v 35.511 c 0,0.978 0.525,1.881 1.375,2.365 l 22.181,12.634 c 0.842,0.481 1.877,0.473 2.715,-0.012 0.838,-0.487 1.354,-1.383 1.354,-2.353 V -0.967 c 0.042,-0.218 0.055,-0.413 0.055,-0.571 0,-1.486 0,-4.578 -13.868,-4.578" />
      </g>
      <g
         transform="matrix(0.35277777,0,0,-0.35277777,-175.02343,146.10745)"
         id="g13904">
        <g
           id="g13906" />
        <g
           id="g13918">
          <g
             style="opacity:0.14999402"
             id="g13916"
             clip-path="url(#clipPath13910)">
            <g
               id="g13914"
               transform="translate(415.2237,645.344)">
              <path
                 inkscape:connector-curvature="0"
                 id="path13912"
                 style="fill:#000000;fill-opacity:1;fill-rule:nonzero;stroke:none"
                 d="M 0,0 H 0.286 V 48.268 L -8.786,43.101 V 0 h -0.286 c 0.214,-0.144 0.339,-0.293 0.339,-0.448 0,-0.755 -2.716,-1.405 -6.608,-1.694 1.387,-0.103 2.919,-0.162 4.536,-0.162 6.155,0 11.145,0.831 11.145,1.856 C 0.34,-0.293 0.214,-0.144 0,0" />
            </g>
          </g>
        </g>
      </g>
      <g
         transform="matrix(0.35277777,0,0,-0.35277777,-28.568656,-98.792501)"
         id="g13920">
        <path
           inkscape:connector-curvature="0"
           id="path13922"
           style="fill:#ee3465;fill-opacity:1;fill-rule:nonzero;stroke:none"
           d="m 0,0 c 1.099,-1.795 -2.813,-6.192 -8.738,-9.82 -5.925,-3.629 -11.62,-5.115 -12.719,-3.32 -1.099,1.795 2.813,6.192 8.738,9.82 C -6.794,0.309 -1.099,1.795 0,0" />
      </g>
      <g
         transform="matrix(0.35277777,0,0,-0.35277777,-29.1585,-98.092554)"
         id="g13924">
        <path
           inkscape:connector-curvature="0"
           id="path13926"
           style="fill:#2e2f31;fill-opacity:1;fill-rule:nonzero;stroke:none"
           d="m 0,0 h 0.018 z m -1.873,-0.187 c -1.749,-0.419 -4.483,-1.467 -7.752,-3.469 -3.27,-2.003 -5.445,-3.962 -6.615,-5.329 1.749,0.419 4.483,1.468 7.752,3.47 3.27,2.002 5.447,3.961 6.615,5.328 M -17.819,-14.65 c -1.805,0 -3.361,0.561 -4.288,2.071 -3.246,5.304 7.46,12.23 9.64,13.565 2.177,1.335 13.209,7.721 16.461,2.42 V 3.405 c 3.244,-5.303 -7.46,-12.228 -9.639,-13.563 -1.558,-0.954 -7.645,-4.492 -12.174,-4.492" />
      </g>
    </g>
  </g>
</svg>
